<?xml version="1.0" encoding="utf-8"?>
<!-- Generator: Adobe Illustrator 19.0.0, SVG Export Plug-In . SVG Version: 6.00 Build 0)  -->
<svg version="1.1" id="Layer_1" xmlns="http://www.w3.org/2000/svg" xmlns:xlink="http://www.w3.org/1999/xlink" x="0px" y="0px"
	 viewBox="0 0 190 60" style="enable-background:new 0 0 190 60;" xml:space="preserve">
<style type="text/css">
	.st0{fill:#010101;}
</style>
<g id="XMLID_8_">
	<path id="XMLID_16_" class="st0" d="M132.4,36.9h3l5.3,10.7l5.3-10.7h3v16.5h-2.5V42.3l-4.9,9.4h-1.7l-4.9-9.4v11.2h-2.5V36.9z"/>
	<path id="XMLID_13_" class="st0" d="M111.1,36.9c-4.6,0-8.4,3.8-8.4,8.4c0,4.6,3.8,8.4,8.4,8.4c4.6,0,8.4-3.8,8.4-8.4
		C119.5,40.7,115.7,36.9,111.1,36.9z M111.1,51.1c-3.2,0-5.8-2.6-5.8-5.8s2.6-5.8,5.8-5.8c3.2,0,5.8,2.6,5.8,5.8
		S114.3,51.1,111.1,51.1z"/>
	<path id="XMLID_10_" class="st0" d="M169,36.9c-4.6,0-8.4,3.8-8.4,8.4c0,4.6,3.8,8.4,8.4,8.4c4.6,0,8.4-3.8,8.4-8.4
		C177.4,40.7,173.7,36.9,169,36.9z M169,51.1c-3.2,0-5.8-2.6-5.8-5.8s2.6-5.8,5.8-5.8c3.2,0,5.8,2.6,5.8,5.8S172.2,51.1,169,51.1z"
		/>
	<polygon id="XMLID_1_" class="st0" points="93.5,39.3 93.5,36.9 82,36.9 82,53.7 84.5,53.7 84.5,46.7 91.8,46.7 91.8,44.3 
		84.5,44.3 84.5,39.3 	"/>
</g>
<g id="XMLID_9_">
	<path id="XMLID_17_" class="st0" d="M3.8,2.5h34.9v7.2H11.4v44.1H3.8V2.5z"/>
	<g id="XMLID_11_">
		<path id="XMLID_12_" class="st0" d="M27.6,40.6c-6.1,0-11.1-5-11.1-11.1c0-6.1,5-11.1,11.1-11.1c6.1,0,11.1,5,11.1,11.1
			C38.7,35.6,33.7,40.6,27.6,40.6z M27.6,24.6c-2.7,0-5,2.2-5,5c0,2.7,2.2,5,5,5s5-2.2,5-5C32.6,26.8,30.4,24.6,27.6,24.6z"/>
	</g>
</g>
</svg>
